<svg width="180" height="32" viewBox="0 0 180 32" fill="none" xmlns="http://www.w3.org/2000/svg">
<path d="M3.2166 28.3805H1.27821V30.3107H3.53476V30.8957H0.588867V25.4559H3.49941V26.0408H1.27821V27.7956H3.2166V28.3805Z" fill="#F7F7F7"/>
<path d="M7.69422 30.3049H9.84472V30.8898H7.00488V25.45H7.70011V30.3049H7.69422Z" fill="#F7F7F7"/>
<path d="M18.2821 28.7665V30.8957H17.5928V25.4559H19.3426C19.8493 25.4559 20.25 25.608 20.5446 25.9121C20.8333 26.2163 20.9806 26.6199 20.9806 27.1229C20.9806 27.6259 20.8391 28.0471 20.5622 28.3337C20.2853 28.6203 19.8965 28.7607 19.3898 28.7724H18.2821V28.7665ZM18.2821 28.1758H19.3426C19.649 28.1758 19.8847 28.0822 20.0438 27.9008C20.2028 27.7195 20.2912 27.4563 20.2912 27.1171C20.2912 26.7778 20.2087 26.5263 20.0379 26.3333C19.867 26.1402 19.6372 26.0349 19.3426 26.0349H18.2821V28.1758Z" fill="#F7F7F7"/>
<path d="M27.0779 28.3805H25.1395V30.3107H27.3961V30.8957H24.4502V25.4559H27.3607V26.0408H25.1395V27.7956H27.0779V28.3805Z" fill="#F7F7F7"/>
<path d="M32.5218 28.6905H31.5556V30.8898H30.8604V25.45H32.3981C32.9343 25.45 33.3408 25.5904 33.6177 25.8653C33.8946 26.1461 34.0301 26.5497 34.0301 27.0878C34.0301 27.4271 33.9535 27.7195 33.8062 27.9652C33.659 28.2167 33.4468 28.4039 33.1699 28.5326L34.2305 30.8489V30.8956H33.4881L32.5159 28.6963L32.5218 28.6905ZM31.5556 28.1056H32.3922C32.6809 28.1056 32.9107 28.012 33.0816 27.8307C33.2524 27.6493 33.3408 27.3978 33.3408 27.0878C33.3408 26.3917 33.0226 26.0408 32.3863 26.0408H31.5556V28.1056Z" fill="#F7F7F7"/>
<path d="M38.2606 30.8957H37.5713V25.4559H38.2606V30.8957Z" fill="#F7F7F7"/>
<path d="M45.614 28.6495C45.614 29.3924 45.455 29.9656 45.1368 30.3634C44.8186 30.767 44.365 30.9658 43.7758 30.9658C43.1866 30.9658 42.7624 30.7728 42.4384 30.3809C42.1084 29.989 41.9435 29.4392 41.9258 28.7256V27.702C41.9258 26.9767 42.0849 26.4034 42.4089 25.994C42.733 25.5845 43.1866 25.374 43.764 25.374C44.3414 25.374 44.7892 25.5728 45.1132 25.9647C45.4373 26.3566 45.6023 26.924 45.6081 27.6552V28.6437L45.614 28.6495ZM44.9306 27.702C44.9306 27.1229 44.8363 26.6959 44.6478 26.4151C44.4592 26.1344 44.1706 25.994 43.7758 25.994C43.3811 25.994 43.11 26.1344 42.9156 26.421C42.7212 26.7076 42.621 27.1229 42.621 27.6786V28.6554C42.621 29.2111 42.7212 29.6322 42.9156 29.9247C43.11 30.2171 43.3987 30.3634 43.7876 30.3634C44.1764 30.3634 44.4592 30.2288 44.6478 29.9598C44.8363 29.6907 44.9306 29.2754 44.9365 28.7197V27.702H44.9306Z" fill="#F7F7F7"/>
<path d="M49.2666 30.8957V25.4559H50.5746C51.2168 25.4559 51.7117 25.6547 52.0652 26.0525C52.4187 26.4502 52.5955 27.0059 52.5955 27.7312V28.6437C52.5955 29.3632 52.4128 29.9188 52.0593 30.3107C51.6999 30.7026 51.1814 30.9015 50.498 30.9015H49.2725L49.2666 30.8957ZM49.9559 26.0408V30.3107H50.5098C50.9929 30.3107 51.3464 30.1762 51.5703 29.8954C51.7942 29.6205 51.9061 29.2111 51.912 28.6729V27.7078C51.912 27.1346 51.8001 26.7135 51.5762 26.4444C51.3523 26.1753 51.0165 26.0408 50.5687 26.0408H49.95H49.9559Z" fill="#F7F7F7"/>
<path d="M56.9677 30.8957H56.2783V25.4559H56.9677V30.8957Z" fill="#F7F7F7"/>
<path d="M63.1534 29.5211C63.1534 29.252 63.0768 29.0414 62.9295 28.8952C62.7822 28.749 62.5112 28.6086 62.1282 28.4741C61.7394 28.3395 61.4448 28.1933 61.2386 28.0412C61.0324 27.8891 60.8792 27.7195 60.779 27.5265C60.6789 27.3335 60.6258 27.1112 60.6258 26.8655C60.6258 26.4327 60.7731 26.0817 61.0618 25.801C61.3505 25.5202 61.7335 25.3798 62.199 25.3798C62.5171 25.3798 62.8058 25.45 63.0592 25.5904C63.3125 25.7308 63.501 25.9296 63.6365 26.187C63.7721 26.4385 63.8428 26.7193 63.8428 27.0235H63.1475C63.1475 26.6842 63.065 26.4268 62.9001 26.2397C62.7351 26.0583 62.4994 25.9647 62.199 25.9647C61.922 25.9647 61.704 26.0408 61.5509 26.1987C61.3977 26.3508 61.3211 26.5731 61.3211 26.848C61.3211 27.0761 61.4036 27.2691 61.5685 27.4271C61.7335 27.5791 61.9927 27.7195 62.3345 27.8423C62.8765 28.0178 63.2595 28.2401 63.4893 28.4975C63.719 28.7548 63.8369 29.0941 63.8369 29.5152C63.8369 29.9539 63.6896 30.3107 63.4009 30.5739C63.1122 30.8372 62.7174 30.9717 62.2225 30.9717C61.9044 30.9717 61.6098 30.9015 61.3387 30.767C61.0677 30.6266 60.8556 30.4336 60.7024 30.182C60.5492 29.9305 60.4727 29.6439 60.4727 29.3222H61.1679C61.1679 29.6615 61.2622 29.9188 61.4507 30.106C61.6392 30.2932 61.8985 30.3868 62.2225 30.3868C62.5289 30.3868 62.7528 30.3107 62.906 30.1528C63.0591 30.0007 63.1357 29.7843 63.1357 29.5211H63.1534Z" fill="#F7F7F7"/>
<path d="M68.2265 25.45L69.6582 29.8896L71.0899 25.45H71.9796V30.8898H71.2902V28.7724L71.355 26.6491L69.9233 30.8898H69.399L67.9732 26.6608L68.038 28.7665V30.8839H67.3486V25.4442H68.2383L68.2265 25.45Z" fill="#F7F7F7"/>
<path d="M79.3152 28.6495C79.3152 29.3924 79.1561 29.9656 78.838 30.3634C78.5198 30.767 78.0662 30.9658 77.477 30.9658C76.8878 30.9658 76.4636 30.7728 76.1395 30.3809C75.8096 29.989 75.6446 29.4392 75.627 28.7256V27.702C75.627 26.9767 75.786 26.4034 76.1101 25.994C76.4341 25.5787 76.8878 25.374 77.4652 25.374C78.0426 25.374 78.4904 25.5728 78.8144 25.9647C79.1385 26.3625 79.3034 26.924 79.3093 27.6552V28.6437L79.3152 28.6495ZM78.6259 27.702C78.6259 27.1229 78.5316 26.6959 78.3431 26.4151C78.1545 26.1344 77.8658 25.994 77.4711 25.994C77.0763 25.994 76.8053 26.1344 76.6109 26.421C76.4165 26.7076 76.3163 27.1229 76.3163 27.6786V28.6554C76.3163 29.2111 76.4165 29.6322 76.6109 29.9247C76.8053 30.2171 77.094 30.3634 77.4829 30.3634C77.8717 30.3634 78.1545 30.2288 78.3431 29.9598C78.5316 29.6907 78.6259 29.2754 78.6318 28.7197V27.702H78.6259Z" fill="#F7F7F7"/>
<path d="M90.8455 28.6495C90.8455 29.1292 90.7806 29.5328 90.651 29.8603C90.5214 30.1879 90.3388 30.4511 90.0972 30.6324L90.9162 31.3636L90.4507 31.814L89.4668 30.919C89.3077 30.9541 89.1545 30.9658 89.0072 30.9658C88.4357 30.9658 87.9879 30.7669 87.6639 30.3692C87.3339 29.9715 87.169 29.4158 87.1631 28.6905V27.702C87.1631 26.9708 87.3222 26.3976 87.6462 25.9881C87.9703 25.5787 88.4239 25.374 89.0013 25.374C89.5787 25.374 90.0383 25.5728 90.3623 25.9764C90.6805 26.3742 90.8454 26.9416 90.8513 27.6727V28.6437L90.8455 28.6495ZM90.1561 27.702C90.1561 27.1229 90.0618 26.6959 89.8733 26.4151C89.6848 26.1344 89.3902 25.994 89.0013 25.994C88.6125 25.994 88.3414 26.1344 88.147 26.421C87.9526 26.7076 87.8524 27.1229 87.8524 27.6786V28.6495C87.8524 29.2111 87.9526 29.6322 88.147 29.9247C88.3414 30.2171 88.6301 30.3634 89.0131 30.3634C89.3961 30.3634 89.6789 30.2288 89.8674 29.9656C90.056 29.7024 90.1561 29.2929 90.1679 28.7431V27.702H90.1561Z" fill="#F7F7F7"/>
<path d="M97.7978 25.45V29.3164C97.7978 29.8311 97.6446 30.2347 97.3442 30.5271C97.0496 30.8196 96.6371 30.9658 96.1069 30.9658C95.5766 30.9658 95.1524 30.8255 94.8637 30.5388C94.575 30.2522 94.4336 29.8486 94.4277 29.3164V25.45H95.1112V29.2871C95.1112 29.6556 95.1878 29.9247 95.3469 30.106C95.5059 30.2873 95.7534 30.3751 96.1069 30.3751C96.4604 30.3751 96.7137 30.2873 96.8669 30.106C97.0201 29.9247 97.1026 29.6498 97.1026 29.2871V25.45H97.7978Z" fill="#F7F7F7"/>
<path d="M104.066 28.3805H102.128V30.3107H104.384V30.8957H101.438V25.4559H104.349V26.0408H102.128V27.7956H104.066V28.3805Z" fill="#F7F7F7"/>
<path d="M115.791 30.8957H115.096V28.3805H112.892V30.8957H112.203V25.4559H112.892V27.7956H115.096V25.4559H115.791V30.8957Z" fill="#F7F7F7"/>
<path d="M122.125 29.4684H120.275L119.851 30.8957H119.144L120.911 25.4559H121.5L123.268 30.8957H122.561L122.131 29.4684H122.125ZM120.452 28.8835H121.948L121.2 26.4093L120.452 28.8835Z" fill="#F7F7F7"/>
<path d="M130.031 29.1643C130.002 29.7492 129.837 30.1937 129.536 30.5037C129.236 30.8137 128.812 30.9717 128.264 30.9717C127.716 30.9717 127.274 30.767 126.956 30.3517C126.632 29.9364 126.473 29.3748 126.473 28.6612V27.6727C126.473 26.965 126.638 26.4034 126.973 25.994C127.303 25.5845 127.757 25.374 128.334 25.374C128.865 25.374 129.271 25.5319 129.566 25.8477C129.855 26.1636 130.014 26.614 130.037 27.1989H129.342C129.312 26.7544 129.218 26.4385 129.059 26.2513C128.9 26.0642 128.659 25.9647 128.334 25.9647C127.963 25.9647 127.675 26.111 127.474 26.3976C127.274 26.69 127.174 27.1112 127.174 27.6727V28.6729C127.174 29.2228 127.268 29.6439 127.457 29.9422C127.645 30.2347 127.916 30.3809 128.276 30.3809C128.635 30.3809 128.894 30.2932 129.053 30.1177C129.212 29.9422 129.307 29.6205 129.348 29.1643H130.043H130.031Z" fill="#F7F7F7"/>
<path d="M134.256 23.9467H135.098L134.091 25.0464H133.531L134.256 23.9467ZM134.268 30.8956H133.578V25.4558H134.268V30.8956Z" fill="#F7F7F7"/>
<path d="M140.613 29.4684H138.763L138.339 30.8957H137.632L139.399 25.4559H139.989L141.756 30.8957H141.049L140.619 29.4684H140.613ZM138.94 28.8835H140.436L139.688 26.4093L138.94 28.8835Z" fill="#F7F7F7"/>
<path d="M151.972 28.4916H150.122V30.8957H149.433V25.4559H152.284V26.0408H150.122V27.9067H151.972V28.4916Z" fill="#F7F7F7"/>
<path d="M158.276 29.4684H156.426L156.002 30.8957H155.295L157.062 25.4559H157.652L159.419 30.8957H158.712L158.282 29.4684H158.276ZM156.609 28.8835H158.105L157.357 26.4093L156.609 28.8835Z" fill="#F7F7F7"/>
<path d="M163.437 30.3049H165.588V30.8898H162.748V25.45H163.443V30.3049H163.437Z" fill="#F7F7F7"/>
<path d="M172.199 26.0408H170.756V30.8957H170.067V26.0408H168.629V25.4559H172.199V26.0408Z" fill="#F7F7F7"/>
<path d="M178.149 29.4684H176.299L175.875 30.8957H175.168L176.936 25.4559H177.525L179.292 30.8957H178.585L178.155 29.4684H178.149ZM176.476 28.8835H177.972L177.224 26.4093L176.476 28.8835Z" fill="#F7F7F7"/>
<path d="M180 19.4838H0V19.9868H180V19.4838Z" fill="#F7F7F7"/>
<path d="M12.0609 15.0676H0.106445V12.3302H1.80328V2.73744H0.106445V0H11.8016V4.44541H8.62008V2.94801H5.60348V6.00131H10.04V8.94932H5.60348V12.1079H8.87343V10.6105H12.055V15.0559L12.0609 15.0676Z" fill="#F7F7F7"/>
<path d="M13.6752 11.0609V2.63215H12.1904V0H17.3457V10.8503C17.3457 11.4001 17.4106 11.7686 17.5461 11.9558C17.6816 12.143 17.9526 12.2424 18.365 12.2424L18.8128 12.219V15.1086C18.4711 15.1495 18.1058 15.1729 17.711 15.1729C16.6093 15.1729 15.696 14.9506 14.9714 14.5002C14.1053 13.9504 13.6752 12.8098 13.6752 11.0667V11.0609Z" fill="#F7F7F7"/>
<path d="M31.3567 15.0676H19.4082V12.3302H21.105V2.73744H19.4082V0H31.1034V4.44541H27.9218V2.94801H24.9052V6.00131H29.3418V8.94932H24.9052V12.1079H28.1752V10.6105H31.3567V15.0559V15.0676Z" fill="#F7F7F7"/>
<path d="M31.7803 9.65123C31.7803 7.9374 32.2399 6.56283 33.159 5.52167C34.0958 4.48051 35.3154 3.95993 36.8296 3.95993C37.5484 3.95993 38.1435 4.06521 38.603 4.27579C39.0626 4.48636 39.3749 4.69693 39.5457 4.9075L39.6282 5.03619H39.6694C39.6577 4.9075 39.6459 4.67938 39.6459 4.34013V2.63215H38.1611V0H43.3165V11.9675C43.3165 12.2775 43.4696 12.4296 43.7819 12.4296H44.5891V15.0618H41.4252C40.9421 15.0618 40.5768 14.9506 40.3293 14.7342C40.0819 14.5178 39.9581 14.2487 39.9581 13.9212V13.8568L39.9994 13.5176H39.9581C39.9581 13.5176 39.9287 13.5644 39.9051 13.6112C39.8815 13.6579 39.8403 13.7281 39.7696 13.8217C39.6989 13.9153 39.6046 14.0206 39.4927 14.1493C38.768 14.9214 37.8017 15.3074 36.5821 15.3074C35.1387 15.3074 33.9721 14.7868 33.0824 13.7457C32.2045 12.6811 31.7686 11.3066 31.7686 9.63368L31.7803 9.65123ZM35.4686 9.65123C35.4686 10.4409 35.6689 11.0784 36.0637 11.5698C36.4584 12.0611 36.971 12.3068 37.5896 12.3068C38.2083 12.3068 38.7268 12.0787 39.1392 11.6224C39.5516 11.1662 39.7519 10.5345 39.7519 9.73897C39.7519 8.94347 39.5634 8.3059 39.1922 7.80287C38.8151 7.29984 38.3025 7.04247 37.6545 7.04247C37.0064 7.04247 36.4938 7.27644 36.0813 7.75023C35.6689 8.21817 35.4686 8.85573 35.4686 9.65708V9.65123Z" fill="#F7F7F7"/>
<path d="M52.0311 15.0676H45.5973V12.4355H46.9759V6.84945H45.4912V4.21729H50.6465V12.4355H52.0252V15.0676H52.0311ZM50.6053 2.84273H47.0172V0H50.6053V2.84273Z" fill="#F7F7F7"/>
<path d="M53.2562 11.0609V6.8436H51.7715V4.21145H53.3623V1.28683H56.9268V4.2173H59.2187V6.84945H56.9268V10.6865C56.9268 11.6868 57.5749 12.1839 58.877 12.1839L59.366 12.1606V15.1086C59.095 15.1495 58.765 15.1729 58.3703 15.1729C57.0977 15.1729 56.0195 14.9389 55.1416 14.4768C53.8807 13.7047 53.2503 12.5641 53.2503 11.0609H53.2562Z" fill="#F7F7F7"/>
<path d="M65.9529 3.95996C67.7205 3.95996 69.1934 4.49224 70.3659 5.56265C71.5678 6.61551 72.1688 7.98423 72.1688 9.67466C72.1688 11.3651 71.5737 12.7104 70.3836 13.7633C69.1816 14.8044 67.7087 15.325 65.9706 15.325C64.2325 15.325 62.7596 14.8044 61.5577 13.7633C60.3675 12.7104 59.7725 11.3475 59.7725 9.67466C59.7725 8.00178 60.3675 6.64476 61.5577 5.56265C62.7301 4.49809 64.1972 3.95996 65.9529 3.95996ZM63.4902 9.67466C63.4902 10.4468 63.7259 11.0785 64.2031 11.5581C64.6744 12.0436 65.2695 12.2834 65.9765 12.2834C66.6835 12.2834 67.2727 12.0436 67.7499 11.5581C68.2213 11.0726 68.4628 10.4468 68.4628 9.67466C68.4628 8.90256 68.2272 8.24745 67.7499 7.74441C67.2786 7.24723 66.6835 6.99571 65.9765 6.99571C65.2695 6.99571 64.6803 7.24723 64.2031 7.74441C63.7317 8.2416 63.4902 8.88501 63.4902 9.67466Z" fill="#F7F7F7"/>
<path d="M79.0913 15.0676H72.4453V12.4355H73.93V7.3174C73.93 7.00739 73.7769 6.85531 73.4646 6.85531H72.4453V4.22316H75.9038C76.9349 4.22316 77.4533 4.68524 77.4533 5.61527V6.18265L77.4121 6.73247H77.4533C77.7067 5.96038 78.1545 5.31696 78.8026 4.80223C79.4448 4.2875 80.1577 4.03598 80.9354 4.03598L81.3596 4.07692V7.65665C81.1769 7.61571 80.9295 7.59231 80.6172 7.59231C79.6392 7.59231 78.8968 7.87892 78.3783 8.4463C77.8599 9.01367 77.6065 9.82087 77.6065 10.862V12.4413H79.0913V15.0735V15.0676Z" fill="#F7F7F7"/>
<path d="M92.8259 15.0676H85.9502V12.3302H87.6058L88.413 2.74329H86.7161V0H92.6786L95.2239 7.45777L95.6481 9.01951H95.6893C95.7482 8.62761 95.8896 8.10703 96.1135 7.45777L98.6588 0H104.621V2.73744H102.924L103.732 12.3243H105.387V15.0618H98.5115V12.3243H100.02L99.6604 6.90794C99.6309 6.4166 99.6545 5.94282 99.7252 5.49827L99.7488 5.22336H99.6663C99.5838 5.78489 99.4483 6.31717 99.2656 6.82605L97.2683 12.3243H94.0868L92.0894 6.82605C91.9775 6.55699 91.8655 6.11829 91.7477 5.49827L91.6829 5.22336H91.6004L91.6417 5.53922C91.6829 6.11829 91.7006 6.57453 91.6829 6.90794L91.3235 12.3243H92.8318V15.0618L92.8259 15.0676Z" fill="#F7F7F7"/>
<path d="M105.563 9.62786C105.563 7.99593 106.082 6.65061 107.113 5.5802C108.162 4.49809 109.54 3.95996 111.255 3.95996C112.852 3.95996 114.101 4.4513 114.99 5.43397C115.898 6.38739 116.351 7.64497 116.351 9.20672L116.269 10.3005H109.328C109.458 10.9498 109.747 11.4411 110.212 11.7862C110.672 12.1313 111.225 12.301 111.879 12.301C112.787 12.301 113.676 12.0436 114.554 11.523L114.955 11.2715L116.292 13.7984C116.122 13.9387 115.933 14.0791 115.721 14.2195C115.438 14.4008 114.902 14.629 114.107 14.8922C113.288 15.1729 112.445 15.3133 111.579 15.3133C109.741 15.3133 108.274 14.7518 107.184 13.6287C106.106 12.5174 105.569 11.1838 105.569 9.62786H105.563ZM109.405 8.30009H112.545C112.545 7.86724 112.41 7.48705 112.145 7.17119C111.874 6.85533 111.55 6.6974 111.167 6.6974C110.218 6.6974 109.629 7.22968 109.405 8.30009Z" fill="#F7F7F7"/>
<path d="M123.71 15.0676H117.276V12.4355H118.655V7.31738C118.655 7.00737 118.496 6.85529 118.189 6.85529H117.17V4.22314H120.652C121.659 4.22314 122.16 4.63258 122.16 5.44562V5.80243L122.137 6.05394H122.178C122.349 5.76148 122.52 5.52166 122.685 5.34034C123.35 4.4688 124.417 4.01256 125.89 3.97162C128.353 3.97162 129.584 5.32864 129.584 8.03683V12.4413H130.963V15.0735H125.913V8.70949C125.913 7.75607 125.501 7.27643 124.682 7.27643C123.863 7.27643 123.315 7.59814 122.92 8.24741C122.526 8.89667 122.325 9.63952 122.325 10.4818V12.4413H123.704V15.0735L123.71 15.0676Z" fill="#F7F7F7"/>
<path d="M131.458 9.65123C131.458 7.9374 131.918 6.56283 132.837 5.52167C133.774 4.48051 134.993 3.95993 136.507 3.95993C137.226 3.95993 137.821 4.06521 138.281 4.27579C138.74 4.48636 139.053 4.69693 139.223 4.9075L139.306 5.03619H139.347C139.335 4.9075 139.324 4.67938 139.324 4.34013V2.63215H137.839V0H142.994V11.9675C142.994 12.2775 143.147 12.4296 143.46 12.4296H144.267V15.0618H141.103C140.62 15.0618 140.255 14.9506 140.007 14.7342C139.76 14.5178 139.636 14.2487 139.636 13.9212V13.8568L139.677 13.5176H139.636C139.636 13.5176 139.606 13.5644 139.583 13.6112C139.559 13.6579 139.518 13.7281 139.447 13.8217C139.377 13.9153 139.282 14.0206 139.17 14.1493C138.446 14.9214 137.479 15.3074 136.26 15.3074C134.816 15.3074 133.65 14.7868 132.76 13.7457C131.882 12.6811 131.446 11.3066 131.446 9.63368L131.458 9.65123ZM135.152 9.65123C135.152 10.4409 135.353 11.0784 135.747 11.5698C136.142 12.0611 136.655 12.3068 137.273 12.3068C137.892 12.3068 138.41 12.0787 138.823 11.6224C139.235 11.1662 139.436 10.5345 139.436 9.73897C139.436 8.94347 139.247 8.3059 138.876 7.80287C138.499 7.29984 137.986 7.04247 137.338 7.04247C136.69 7.04247 136.177 7.27644 135.765 7.75023C135.353 8.21817 135.152 8.85573 135.152 9.65708V9.65123Z" fill="#F7F7F7"/>
<path d="M150.647 3.95996C152.415 3.95996 153.888 4.49224 155.06 5.56265C156.262 6.61551 156.863 7.98423 156.863 9.67466C156.863 11.3651 156.268 12.7104 155.078 13.7633C153.876 14.8044 152.403 15.325 150.665 15.325C148.927 15.325 147.454 14.8044 146.252 13.7633C145.062 12.7104 144.467 11.3475 144.467 9.67466C144.467 8.00178 145.062 6.64476 146.252 5.56265C147.424 4.49809 148.892 3.95996 150.647 3.95996ZM148.185 9.67466C148.185 10.4468 148.42 11.0785 148.897 11.5581C149.369 12.0436 149.964 12.2834 150.671 12.2834C151.378 12.2834 151.967 12.0436 152.444 11.5581C152.916 11.0726 153.157 10.4468 153.157 9.67466C153.157 8.90256 152.922 8.24745 152.444 7.74441C151.973 7.24723 151.378 6.99571 150.671 6.99571C149.964 6.99571 149.375 7.24723 148.897 7.74441C148.426 8.2416 148.185 8.88501 148.185 9.67466Z" fill="#F7F7F7"/>
<path d="M157.629 15.0676V12.8332L162.425 7.45778C162.537 7.3174 162.731 7.14192 162.996 6.93135L163.102 6.84946V6.80851C162.619 6.83776 162.295 6.84946 162.124 6.84946H160.704V8.15384H157.629V4.21146H167.392V6.46341L162.678 11.8155C162.619 11.8856 162.554 11.9558 162.478 12.026C162.401 12.0962 162.325 12.1606 162.254 12.2249C162.183 12.2892 162.136 12.336 162.107 12.3594L162.001 12.4238V12.4647C162.484 12.4355 162.808 12.4238 162.979 12.4238H164.634V11.1194H167.71V15.0618H157.629V15.0676Z" fill="#F7F7F7"/>
<path d="M168.541 11.9676C168.541 11.2364 168.747 10.6105 169.166 10.0841C169.584 9.55767 170.144 9.18332 170.851 8.9552C172.023 8.53406 173.201 8.32349 174.374 8.32349H175.034V8.00763C175.034 7.20628 174.515 6.80854 173.484 6.80854C172.618 6.80854 171.758 7.06005 170.892 7.56893L170.468 7.84385L169.195 5.37547C169.336 5.26434 169.613 5.10056 170.026 4.88999C171.157 4.26997 172.424 3.95996 173.826 3.95996C175.411 3.95996 176.619 4.34016 177.455 5.10056C178.292 5.86096 178.71 6.95477 178.71 8.38783V11.9676C178.71 12.2776 178.863 12.4296 179.176 12.4296H179.983V15.0618H176.819C176.336 15.0618 175.971 14.9507 175.723 14.7342C175.476 14.5178 175.352 14.2488 175.352 13.9212V13.8569L175.393 13.5176H175.352C175.352 13.5176 175.317 13.5644 175.287 13.6112C175.258 13.658 175.211 13.7282 175.152 13.8218C175.087 13.9153 174.998 14.0206 174.886 14.1493C174.162 14.9214 173.243 15.3075 172.129 15.3075C171.139 15.3075 170.291 15.015 169.584 14.4242C168.889 13.8335 168.541 13.0146 168.541 11.9559V11.9676ZM172.229 11.716C172.229 11.9968 172.318 12.2308 172.494 12.4121C172.671 12.5934 172.907 12.687 173.207 12.687C173.643 12.687 174.068 12.4647 174.48 12.0143C174.875 11.5815 175.075 11.1136 175.075 10.6222V10.3707H174.733C174.014 10.3707 173.414 10.4877 172.942 10.7158C172.471 10.9498 172.229 11.2832 172.229 11.716Z" fill="#F7F7F7"/>
</svg>
