<svg width="24" height="24" viewBox="0 0 24 24" fill="none" xmlns="http://www.w3.org/2000/svg">
<g clip-path="url(#clip0_973_4407)">
<path d="M11.7645 23.3479H11.7132C5.29228 23.3479 0.0683594 18.1224 0.0683594 11.6996V11.6482C0.0683594 5.22548 5.29228 0 11.7132 0H11.7645C18.1854 0 23.4093 5.22548 23.4093 11.6482V11.6996C23.4093 18.1224 18.1854 23.3479 11.7645 23.3479ZM11.7132 0.790298C5.72761 0.790298 0.858423 5.66093 0.858423 11.6482V11.6996C0.858423 17.6869 5.72761 22.5575 11.7132 22.5575H11.7645C17.7501 22.5575 22.6193 17.6869 22.6193 11.6996V11.6482C22.6193 5.66093 17.7501 0.790298 11.7645 0.790298H11.7132Z" fill="#252523"/>
<path d="M13.3092 9.0559V11.5129H16.3478L15.8667 14.8227H13.3092V22.4483C12.7964 22.5195 12.2718 22.5566 11.7393 22.5566C11.1246 22.5566 10.5211 22.5076 9.93321 22.4128V14.8227H7.13086V11.5129H9.93321V8.50666C9.93321 6.64154 11.4446 5.12891 13.31 5.12891V5.13049C13.3155 5.13049 13.3203 5.12891 13.3258 5.12891H16.3486V7.99139H14.3734C13.7864 7.99139 13.31 8.4679 13.31 9.0551L13.3092 9.0559Z" fill="#252523"/>
</g>
<defs>
<clipPath id="clip0_973_4407">
<rect width="24" height="24" fill="white"/>
</clipPath>
</defs>
</svg>
