<svg width="24" height="24" viewBox="0 0 24 24" fill="none" xmlns="http://www.w3.org/2000/svg">
<g clip-path="url(#clip0_973_4397)">
<path d="M11.8328 23.3479H11.7815C5.36064 23.3479 0.136719 18.1224 0.136719 11.6996V11.6482C0.136719 5.22545 5.36064 0 11.7815 0H11.8328C18.2537 0 23.4776 5.22545 23.4776 11.6482V11.6996C23.4776 18.1224 18.2537 23.3479 11.8328 23.3479ZM11.7815 0.790298C5.79598 0.790298 0.926783 5.66091 0.926783 11.6482V11.6996C0.926783 17.6869 5.79598 22.5575 11.7815 22.5575H11.8328C17.8184 22.5575 22.6876 17.6869 22.6876 11.6996V11.6482C22.6876 5.66091 17.8184 0.790298 11.8328 0.790298H11.7815Z" fill="#252523"/>
<path d="M15.2962 4.98438H8.31831C6.39055 4.98438 4.82227 6.55312 4.82227 8.48149V14.8671C4.82227 16.7954 6.39055 18.3641 8.31831 18.3641H15.2962C17.224 18.3641 18.7922 16.7954 18.7922 14.8671V8.48149C18.7922 6.55312 17.224 4.98438 15.2962 4.98438ZM6.05556 8.48149C6.05556 7.23357 7.0708 6.21803 8.31831 6.21803H15.2962C16.5437 6.21803 17.559 7.23357 17.559 8.48149V14.8671C17.559 16.1149 16.5437 17.1305 15.2962 17.1305H8.31831C7.0708 17.1305 6.05556 16.1149 6.05556 14.8671V8.48149Z" fill="#252523"/>
<path d="M11.8076 14.9276C13.6002 14.9276 15.0595 13.4687 15.0595 11.6747C15.0595 9.88078 13.601 8.42188 11.8076 8.42188C10.0141 8.42188 8.55566 9.88078 8.55566 11.6747C8.55566 13.4687 10.0141 14.9276 11.8076 14.9276ZM11.8076 9.65635C12.9208 9.65635 13.8262 10.562 13.8262 11.6755C13.8262 12.7891 12.9208 13.6947 11.8076 13.6947C10.6944 13.6947 9.78897 12.7891 9.78897 11.6755C9.78897 10.562 10.6944 9.65635 11.8076 9.65635Z" fill="#252523"/>
<path d="M15.3605 8.94426C15.8433 8.94426 16.2367 8.55154 16.2367 8.06783C16.2367 7.58419 15.8441 7.19141 15.3605 7.19141C14.877 7.19141 14.4844 7.58419 14.4844 8.06783C14.4844 8.55154 14.877 8.94426 15.3605 8.94426Z" fill="#252523"/>
</g>
<defs>
<clipPath id="clip0_973_4397">
<rect width="24" height="24" fill="white"/>
</clipPath>
</defs>
</svg>
