<svg width="23" height="23" viewBox="0 0 23 23" fill="none" xmlns="http://www.w3.org/2000/svg">
<rect x="0.5" y="0.5" width="22" height="22" rx="11" stroke="#F7F7F7"/>
<path d="M16.023 11.1554C13.5697 9.6987 9.46801 9.54536 7.12967 10.2737C6.74634 10.3887 6.36301 10.1587 6.24801 9.8137C6.13301 9.43036 6.36301 9.04703 6.70801 8.93203C9.42967 8.12703 13.9147 8.28036 16.7513 9.96703C17.0963 10.1587 17.2113 10.6187 17.0197 10.9637C16.828 11.232 16.368 11.347 16.023 11.1554ZM15.9463 13.302C15.7547 13.5704 15.4097 13.6854 15.1413 13.4937C13.0713 12.2287 9.92801 11.8454 7.51301 12.612C7.20634 12.6887 6.86134 12.5354 6.78467 12.2287C6.70801 11.922 6.86134 11.577 7.16801 11.5004C9.96634 10.657 13.4163 11.0787 15.793 12.5354C16.023 12.6504 16.138 13.0337 15.9463 13.302ZM15.0263 15.4104C14.873 15.6404 14.6047 15.717 14.3747 15.5637C12.573 14.452 10.3113 14.222 7.62801 14.8354C7.35967 14.912 7.12967 14.7204 7.05301 14.4904C6.97634 14.222 7.16801 13.992 7.39801 13.9154C10.3113 13.2637 12.8413 13.532 14.8347 14.7587C15.103 14.8737 15.1413 15.1804 15.0263 15.4104ZM11.4997 4.33203C10.4929 4.33203 9.49593 4.53034 8.56577 4.91562C7.6356 5.30091 6.79044 5.86563 6.07852 6.57755C4.64074 8.01532 3.83301 9.96537 3.83301 11.9987C3.83301 14.032 4.64074 15.9821 6.07852 17.4198C6.79044 18.1318 7.6356 18.6965 8.56577 19.0818C9.49593 19.4671 10.4929 19.6654 11.4997 19.6654C13.533 19.6654 15.483 18.8576 16.9208 17.4198C18.3586 15.9821 19.1663 14.032 19.1663 11.9987C19.1663 10.9919 18.968 9.99495 18.5828 9.06479C18.1975 8.13463 17.6327 7.28946 16.9208 6.57755C16.2089 5.86563 15.3637 5.30091 14.4336 4.91562C13.5034 4.53034 12.5065 4.33203 11.4997 4.33203Z" fill="#F7F7F7"/>
</svg>
