<svg width="24" height="24" viewBox="0 0 24 24" fill="none" xmlns="http://www.w3.org/2000/svg">
<g clip-path="url(#clip0_973_4411)">
<path d="M12.1102 23.3479H12.0589C5.638 23.3479 0.414062 18.1224 0.414062 11.6996V11.6482C0.414062 5.22548 5.638 0 12.0589 0H12.1102C18.5311 0 23.755 5.22548 23.755 11.6482V11.6996C23.755 18.1224 18.5311 23.3479 12.1102 23.3479ZM12.0589 0.790298C6.07333 0.790298 1.20413 5.66093 1.20413 11.6482V11.6996C1.20413 17.6869 6.07333 22.5575 12.0589 22.5575H12.1102C18.0958 22.5575 22.9649 17.6869 22.9649 11.6996V11.6482C22.9649 5.66093 18.0958 0.790298 12.1102 0.790298H12.0589Z" fill="#252523"/>
<path d="M17.2763 8.56538V10.689C16.9052 10.6527 16.4231 10.5684 15.8898 10.373C15.1934 10.1177 14.6751 9.76866 14.3355 9.49833V13.7905L14.3269 13.7771C14.3324 13.8623 14.3355 13.9489 14.3355 14.0364C14.3355 16.1679 12.6017 17.9031 10.47 17.9031C8.33838 17.9031 6.60449 16.1679 6.60449 14.0364C6.60449 11.9049 8.33838 10.1689 10.47 10.1689C10.6787 10.1689 10.8836 10.1855 11.0837 10.2177V12.3107C10.8915 12.2421 10.6851 12.2051 10.47 12.2051C9.46092 12.2051 8.63925 13.0262 8.63925 14.0364C8.63925 15.0465 9.46092 15.8676 10.47 15.8676C11.4791 15.8676 12.3008 15.0458 12.3008 14.0364C12.3008 13.9985 12.3 13.9607 12.2976 13.9229V5.58203H14.419C14.427 5.7617 14.434 5.94294 14.4419 6.12261C14.456 6.47641 14.5821 6.81604 14.8019 7.0942C15.0595 7.42124 15.44 7.80102 15.9741 8.10437C16.4743 8.38728 16.9438 8.50946 17.2763 8.56691V8.56538Z" fill="#252523"/>
</g>
<defs>
<clipPath id="clip0_973_4411">
<rect width="24" height="24" fill="white"/>
</clipPath>
</defs>
</svg>
