<svg xmlns="http://www.w3.org/2000/svg" width="19" height="19"><path fill="currentColor" d="M17.1 0H1.9A1.906 1.906 0 0 0 0 1.9V19l3.8-3.8h13.3a1.906 1.906 0 0 0 1.9-1.9V1.9A1.906 1.906 0 0 0 17.1 0Zm0 13.3H3.8l-1.9 1.9V1.9h15.2Z" data-name="Icon material-chat_bubble_outline"/><path fill="currentColor" d="m11.87 6.826-.194 1.64H13.1v1.469h-1.606l-.216 1.7H9.729l.216-1.7h-1.4l-.216 1.7H6.78l.216-1.7H5.561V8.466h1.617l.194-1.64H5.937V5.36h1.617l.216-1.7h1.549l-.216 1.7h1.4l.216-1.7h1.55l-.217 1.7h1.437v1.469Zm-1.549 0h-1.4l-.194 1.64h1.4Z" data-name="Trazado 748"/></svg>
