<svg width="24" height="24" viewBox="0 0 24 24" fill="none" xmlns="http://www.w3.org/2000/svg">
<g clip-path="url(#clip0_973_4393)">
<path d="M11.8436 23.3151C5.42585 23.3151 0.205078 18.0927 0.205078 11.6732C0.205078 5.25356 5.42585 0.03125 11.8436 0.03125C18.2613 0.03125 23.482 5.25356 23.482 11.6732C23.482 18.0927 18.2613 23.3151 11.8436 23.3151ZM11.8436 0.821552C5.86196 0.821552 0.995148 5.68981 0.995148 11.6732C0.995148 17.6565 5.86196 22.5247 11.8436 22.5247C17.8252 22.5247 22.692 17.6565 22.692 11.6732C22.692 5.68981 17.8252 0.821552 11.8436 0.821552Z" fill="#252523"/>
<path d="M18.9238 9.34182C18.8353 8.48749 18.6449 7.54305 17.9441 7.04678C17.4013 6.6619 16.6878 6.64767 16.0218 6.64846C14.6139 6.64925 13.2052 6.65083 11.7974 6.65163C10.4432 6.65321 9.089 6.654 7.73482 6.65558C7.16911 6.65637 6.61923 6.61212 6.09383 6.85711C5.6427 7.06733 5.28954 7.4672 5.07701 7.91214C4.78232 8.53098 4.7207 9.23193 4.68514 9.91636C4.61957 11.1627 4.62667 12.4121 4.70489 13.6577C4.76257 14.5665 4.90873 15.571 5.6111 16.1503C6.23367 16.6631 7.11222 16.6884 7.91969 16.6892C10.4827 16.6916 13.0465 16.694 15.6102 16.6956C15.9389 16.6964 16.2817 16.69 16.6167 16.6537C17.2757 16.5825 17.9038 16.3937 18.3273 15.9052C18.7547 15.4129 18.8645 14.7277 18.9293 14.0788C19.0873 12.5046 19.0857 10.9153 18.9238 9.34182ZM10.3152 13.8789V9.46509L14.1359 11.6716L10.3152 13.8789Z" fill="#252523"/>
</g>
<defs>
<clipPath id="clip0_973_4393">
<rect width="24" height="24" fill="white"/>
</clipPath>
</defs>
</svg>
